<?xml version="1.0" encoding="utf-8"?>
<!-- Generator: Adobe Illustrator 24.3.0, SVG Export Plug-In . SVG Version: 6.00 Build 0)  -->
<svg version="1.1" id="Layer_1" xmlns="http://www.w3.org/2000/svg" xmlns:xlink="http://www.w3.org/1999/xlink" x="0px" y="0px"
	 viewBox="0 0 1024 1024" style="enable-background:new 0 0 1024 1024;" xml:space="preserve">
<path d="M512,1024c-247,0-448-201-448-448c0-81,23.6-161.7,70-239.9c37.2-62.6,89.2-123.8,154.4-181.7C392.6,61.9,498.1,7,512,0
	c9.7,4.9,63.9,33,130.7,80.7l-132.6,85.5c-48.1,30.6-92.3,64-131.5,99.3c-52.9,47.7-94.4,96.9-123.3,146.3
	c-32.6,55.6-48.4,109.3-48.4,164.2c0,168.2,136.9,305,305.1,305s305.1-136.8,305.1-305c0-54.9-15.8-108.6-48.4-164.2
	c-22.5-38.4-52.8-77-90.3-114.7l-1.9-1.9l-2.3,1.4c-96.7,59.3-157.9,114-164.6,120.1c-3.2,2.9-6.3,5.8-9.3,8.7l-6.3,6h222.1
	C640.2,529,576.2,656.9,525.6,811.7c-17-15.3-89.2-105.6-62.5-233.2l0.9-4.2H263.8c0.9-108.8,86-207.1,157.4-270.5
	c28.3-25.1,59.5-49.3,92.7-72L689.7,116C813.5,214.1,960,373.1,960,576C960,823,759,1024,512,1024z"/>
</svg>
